<svg xmlns="http://www.w3.org/2000/svg" viewbox="0 0 32 32" width="32" height="32" style="enable-background:new 0 0 32 32" xml:space="preserve"><path class="avocado_zes" style="fill:#fffaee" d="M17.207 26.5H10.5v-8.707L9.207 16.5H2.5v-14h19v10h8v14h-6.707L20 29.293z"/><path class="avocado_vijf" d="M24 17v1h-8l-4 4-1.5-1.5v-2.714l1.5 1.5 2.786-2.786H21.5v-4H23V17h1zm-8 3h8v-1h-8v1zm0 2h8v-1h-8v1zm0-15H8v1h8V7zm0 2H8v1h8V9zm0 2H8v1h8v-1z" style="fill:#dbd2c1"/><path class="avocado_een" d="M22 12V2H2v15h7l1 1v9h7l3 3 3-3h7V12h-8zM9.414 16H3V3h18v13h-6.414L12 18.586 9.414 16zM29 26h-6.414L20 28.586 17.414 26H11v-7l1 1 3-3h7v-4h7v13z" style="fill:#231f20"/></svg>
