<svg xmlns="http://www.w3.org/2000/svg" viewbox="0 0 32 32" width="32" height="32" style="enable-background:new 0 0 32 32" xml:space="preserve"><path class="avocado_drie" style="fill:#716558" d="M4.5 3.5h23v28h-23z"/><path class="avocado_zes" style="fill:#fffaee" d="M6.5 5.5h19v24h-19z"/><path class="avocado_acht" d="M10.5 6.5v-4h3.036l.118-.333C14.009 1.17 14.952.5 16 .5s1.991.67 2.346 1.667l.118.333H21.5v4h-11z" style="fill:#a3aeb5"/><path class="avocado_een" d="M20 14h-8v-1h8v1zm0 1h-8v1h8v-1zm0 2h-8v1h8v-1zm0 2h-8v1h8v-1zm8-16v29H4V3h6V2h3.184C13.597.837 14.696 0 16 0s2.403.837 2.816 2H22v1h6zM10 7V6H7v23h18V6h-3v1H10zm1-1h10V3h-2.89l-.236-.665C17.59 1.536 16.837 1 16 1s-1.59.536-1.874 1.335L13.89 3H11v3zm16-2h-5v1h4v25H6V5h4V4H5v27h22V4z" style="fill:#231f20"/></svg>
