<svg xmlns="http://www.w3.org/2000/svg" viewbox="0 0 32 32" width="32" height="32" ><path class="avocado_acht" d="m16 20.019-4.31 9.684-2.04-5.222-5.542.844 5.38-7.403-.294-.302A9.449 9.449 0 0 1 6.5 11c0-5.238 4.262-9.5 9.5-9.5s9.5 4.262 9.5 9.5a9.453 9.453 0 0 1-2.694 6.621l-.294.302 5.38 7.403-5.542-.844-2.04 5.222L16 20.019z" style="fill:#ffefae"/><path class="avocado_zeven" d="M16 19a8 8 0 1 0 0-16 8 8 0 0 0 0 16zm0-15c3.86 0 7 3.14 7 7s-3.14 7-7 7-7-3.14-7-7 3.14-7 7-7zm3 5h-6V8h6v1zm0 2h-6v-1h6v1zm0 2h-6v-1h6v1zm3.512 4.922.878 1.208a10.937 10.937 0 0 1-6.534 2.812l-.647-1.453a9.454 9.454 0 0 0 6.23-2.519l.073-.048zm-12.951.048-.073-.048-.878 1.209a10.937 10.937 0 0 0 6.534 2.812l.647-1.453a9.453 9.453 0 0 1-6.23-2.52z" style="fill:#788287"/><path class="avocado_een" d="M23.164 17.969A9.963 9.963 0 0 0 26 11c0-5.523-4.477-10-10-10S6 5.477 6 11a9.963 9.963 0 0 0 2.836 6.969L3 26l6.33-.964L11.66 31 16 21.248 20.34 31l2.33-5.964L29 26l-5.836-8.031zM16 2c4.963 0 9 4.037 9 9s-4.037 9-9 9-9-4.037-9-9 4.037-9 9-9zM9.97 23.927l-4.754.724 4.356-5.994a9.951 9.951 0 0 0 5.464 2.295l-3.317 7.454-1.749-4.479zm12.06 0-1.75 4.479-3.317-7.454a9.945 9.945 0 0 0 5.464-2.295l4.356 5.994-4.753-.724z" style="fill:#231f20"/></svg>
