<svg xmlns="http://www.w3.org/2000/svg" width="24" height="24" stroke-width="0.7" viewbox="0 0 32 32" xml:space="preserve"><path class="sketchy_een" d="M29.887 15.37c-.13-.234-.32-.406-.511-.586a27.846 27.846 0 0 1-.433-.412c-.295-.287-.584-.58-.877-.872a94.228 94.228 0 0 0-1.766-1.696 104.97 104.97 0 0 1-1.73-1.672 36.174 36.174 0 0 0-1.824-1.722 54.18 54.18 0 0 1-2.27-2.069c-.54-.523-1.066-1.063-1.593-1.601a.782.782 0 0 0-.122-.122c-.141-.144-.285-.283-.426-.428a.725.725 0 0 0-.524-.215.757.757 0 0 0-.533.215.758.758 0 0 0 0 1.058l.085.082c.004.849.021 1.697.021 2.546-.001.546 0 1.096-.01 1.645-.852.011-1.703.087-2.54.24-.862.159-1.726.372-2.533.711-.423.178-.831.389-1.23.617-.362.207-.728.412-1.069.649a20.825 20.825 0 0 0-2.22 1.739 15.554 15.554 0 0 0-1.828 2.002c-.5.651-.948 1.353-1.368 2.057-.437.73-.885 1.468-1.247 2.24-.205.437-.356.891-.498 1.353a9.891 9.891 0 0 0-.287 1.13c-.065.362-.111.728-.169 1.092-.065.41-.147.816-.216 1.226a13 13 0 0 0-.157 1.364c-.027.404-.019.807.1 1.195a.823.823 0 0 0 1.002.569c.023-.006.039-.023.061-.031a.828.828 0 0 0 1.107-.301c.161-.266.326-.531.489-.797.092-.149.202-.292.306-.435.248-.302.5-.594.772-.877.252-.261.544-.491.833-.715.51-.369 1.037-.709 1.579-1.032a15.873 15.873 0 0 1 1.693-.854c.854-.346 1.74-.636 2.651-.79a18.515 18.515 0 0 1 2.08-.121c.71-.007 1.417.007 2.123.081l.09.016c.014.828.027 1.655.008 2.485-.019.87 0 1.738-.004 2.607-.001.19.078.36.193.498a.768.768 0 0 0 .189.357.785.785 0 0 0 .552.228c.22 0 .389-.09.552-.228.276-.234.534-.492.801-.737.272-.255.544-.512.807-.776.521-.519 1.042-1.036 1.556-1.561.533-.544 1.08-1.075 1.621-1.609.571-.565 1.134-1.138 1.699-1.705.797-.799 1.569-1.621 2.375-2.41.845-.831 1.674-1.676 2.498-2.529a.792.792 0 0 0 .187-.359.876.876 0 0 0-.045-.74zm-3.016 1.868c-.544.571-1.115 1.115-1.669 1.678-.55.557-1.107 1.109-1.665 1.663-.563.56-1.121 1.126-1.686 1.684-.759.749-1.496 1.519-2.253 2.266-.361.357-.712.725-1.083 1.073.009-.423.009-.845.027-1.267.021-.448.046-.898.054-1.349.011-.544.006-1.09 0-1.634a.853.853 0 0 0-.655-.813.693.693 0 0 0-.351-.215c-.734-.156-1.487-.199-2.237-.199-.133 0-.266.001-.399.004-.889.014-1.772.052-2.653.173-.391.052-.77.168-1.149.27-.391.104-.782.226-1.159.375-.801.314-1.621.644-2.356 1.092-.42.255-.845.506-1.249.783-.487.333-.95.695-1.402 1.076-.385.324-.718.703-1.044 1.084-.081.095-.148.2-.224.299.059-.385.135-.766.202-1.151.076-.433.122-.87.175-1.306.117-.779.353-1.534.649-2.262.336-.731.778-1.422 1.2-2.109.423-.685.864-1.361 1.343-2.006.369-.465.76-.911 1.18-1.331.466-.466.962-.896 1.47-1.311.98-.735 2.01-1.4 3.129-1.905.753-.276 1.533-.455 2.323-.592.305-.038.613-.078.919-.093a18.9 18.9 0 0 1 1.326-.025c.08.001.153-.024.226-.045a.82.82 0 0 0 .332.075c.222 0 .439-.09.598-.247.167-.168.228-.366.247-.598.033-.396.021-.795.023-1.194 0-.411.004-.821.006-1.231l.008-.981c.632.607 1.249 1.229 1.898 1.819.605.55 1.226 1.084 1.807 1.663.594.59 1.172 1.195 1.764 1.789.659.661 1.341 1.301 1.996 1.965.541.552 1.096 1.098 1.602 1.686-.423.45-.846.9-1.27 1.347z" fill="currentColor" stroke="currentColor"/></svg>
