<svg xmlns="http://www.w3.org/2000/svg" width="32" height="32" style="enable-background:new 0 0 32 32" xml:space="preserve"><path class="avocado_vijf" d="M16 26.5C5.837 26.5 1.5 23.359 1.5 16c0-7.012 7.812-9.5 14.5-9.5S30.5 8.988 30.5 16c0 7.359-4.337 10.5-14.5 10.5z" style="fill:#dbd2c1"/><path class="avocado_zestien" d="M14.5 21.5a1 1 0 0 1-1-1V19c0-.827-.673-1.5-1.5-1.5s-1.5.673-1.5 1.5-.673 1.5-1.5 1.5H8c-.827 0-1.5-.673-1.5-1.5v-1c0-.827-.673-1.5-1.5-1.5s-1.5.673-1.5 1.5v.5a1 1 0 0 1-1.611.791A13.249 13.249 0 0 1 1.5 16c0-7.012 7.812-9.5 14.5-9.5S30.5 8.988 30.5 16c0 1.179-.127 2.257-.389 3.291A1 1 0 0 1 28.5 18.5V18c0-.827-.673-1.5-1.5-1.5s-1.5.673-1.5 1.5v1c0 .827-.673 1.5-1.5 1.5s-1.5-.673-1.5-1.5v-1c0-.827-.673-1.5-1.5-1.5s-1.5.673-1.5 1.5c0 .275-.225.5-.5.5h-2c-.827 0-1.5.673-1.5 1.5v.5a1 1 0 0 1-1 1z" style="fill:#e598a3"/><path class="avocado_vijftien" d="M10 11H9v-1h1v1zm-3 0H6v1h1v-1zm2 3H8v1h1v-1zm3-6h-1v1h1V8zm1 3h-1v1h1v-1zm3-2h-1v1h1V9zm2 2h-1v1h1v-1zm1-3h-1v1h1V8zm5 1h-1v1h1V9zm-3 1h-1v1h1v-1zm3 2h-1v1h1v-1zm1 3h-1v1h1v-1zm3-1h-1v1h1v-1zm-1-3h-1v1h1v-1zm-5 3h-1v1h1v-1zm-4 1h-1v1h1v-1zm-3 1h-1v1h1v-1zm-3-1h-1v1h1v-1zm-3 2H8v1h1v-1zm-4-3H4v1h1v-1z" style="fill:#d36781"/><path class="avocado_een" d="M16 14.5c-2.252 0-4.059-.497-4.135-.519l.269-.963c.017.005 1.758.482 3.866.482s3.849-.477 3.866-.481l.269.963c-.076.021-1.883.518-4.135.518zM31 16c0 9.067-6.716 11-15 11-8.284 0-15-1.933-15-11C1 9.373 7.716 6 16 6c8.284 0 15 3.373 15 10zM2 16c0 1.106.117 2.101.331 3.011l.021-.037A.514.514 0 0 0 2.5 19a.5.5 0 0 0 .5-.5V18a2.002 2.002 0 0 1 3.414-1.414c.378.378.586.88.586 1.414v1c0 .267.104.518.293.707S7.733 20 8 20h1c.551 0 1-.449 1-1 0-1.103.897-2 2-2s2 .897 2 2v1.5a.5.5 0 0 0 1 0V20c0-1.103.897-2 2-2h2c0-1.103.897-2 2-2s2 .897 2 2v1c0 .551.449 1 1 1s1-.449 1-1v-1c0-1.103.897-2 2-2s2 .897 2 2v.5a.5.5 0 0 0 .675.468c.015-.062.019-.129.033-.192l.007.036c.184-.857.285-1.786.285-2.812 0-6.643-7.542-9-14-9S2 9.357 2 16zm27.383 3.988A1.495 1.495 0 0 1 28 18.5V18a1 1 0 0 0-2 0v1a2 2 0 1 1-4 0v-1a1 1 0 0 0-2 0 1 1 0 0 1-1 1h-2a1 1 0 0 0-1 1v.5a1.5 1.5 0 0 1-3 0V19a1 1 0 0 0-2 0 2 2 0 0 1-2 2H8a2 2 0 0 1-2-2v-1a1 1 0 0 0-2 0v.5c0 .788-.61 1.428-1.383 1.488C4.091 24.153 8.312 26 16 26c7.688 0 11.909-1.847 13.383-6.012z" style="fill:#231f20"/></svg>