<svg xmlns="http://www.w3.org/2000/svg" width="32" height="32" style="enable-background:new 0 0 32 32" xml:space="preserve"><path class="avocado_zes" d="M16 2.5C8.556 2.5 2.5 8.556 2.5 16c0 2.665.779 5.246 2.254 7.463l.152.229-2.31 5.197.514.515 5.197-2.31.229.152A13.44 13.44 0 0 0 16 29.5c7.444 0 13.5-6.056 13.5-13.5S23.444 2.5 16 2.5z" style="fill:#fffaee"/><path class="avocado_vijf" d="M17 23h-2v-2h2v2zm0-5.101A5.009 5.009 0 0 0 21 13c0-2.757-2.243-5-5-5s-5 2.243-5 5h2c0-1.654 1.346-3 3-3s3 1.346 3 3-1.346 3-3 3h-1v4h2v-2.101z" style="fill:#dbd2c1"/><path class="avocado_een" d="M16 2C8.268 2 2 8.268 2 16c0 2.863.863 5.522 2.338 7.74L2 29l1 1 5.26-2.338A13.928 13.928 0 0 0 16 30c7.732 0 14-6.268 14-14S23.732 2 16 2zm0 26.923c-2.551 0-5.021-.746-7.144-2.158l-.493-.328-5.042 2.241 2.241-5.042-.328-.493A12.86 12.86 0 0 1 3.077 16C3.077 8.874 8.874 3.077 16 3.077S28.923 8.874 28.923 16 23.126 28.923 16 28.923z" style="fill:#231f20"/></svg>
